# xmcd
#
# Track frame offsets:
#	150
#	15998
#	28019
#	42519
#	59239
#	79221
#	96274
#	108950
#	138749
#	158271
#	174080
#	188539
#	210240
#	224155
#	237672
#	256211
#	271259
#	287814
#	303117
#	314708
#	339381
#
# Disc length: 4722 seconds
#
# Revision: 0
# Processed by: cddbd v1.5.1PL2 Copyright (c) Steve Scherf et al.
# Submitted via: dBpowerAMP V4.0
#
DISCID=2c127015
DTITLE=Uncle Wiggly's Hot Shoes Blues Band - Bluesography 1980-1982
DYEAR=1900
DGENRE=Blues
TTITLE0=Keep on Drinkin
TTITLE1=Mr. Sylus
TTITLE2=Learnin About Love
TTITLE3=Here Comes Another
TTITLE4=Deep Depression Blues
TTITLE5=Long Way to Fall
TTITLE6=Purple Pant Boogie
TTITLE7=Don't Know Why
TTITLE8=Shy Voice
TTITLE9=Keep on Lovin me Baby
TTITLE10=You Can't Catch Me
TTITLE11=I Need a Woman
TTITLE12=Shove It
TTITLE13=Walkin Blues
TTITLE14=Watermellon
TTITLE15=Questions for Ya Mama
TTITLE16=Down in the Bottom
TTITLE17=Lovin
TTITLE18=A Bluesman's Suppsoed to be Black
TTITLE19=Long Lonsome Highway
TTITLE20=Uncle Wiggly
EXTD=
EXTT0=
EXTT1=
EXTT2=
EXTT3=
EXTT4=
EXTT5=
EXTT6=
EXTT7=
EXTT8=
EXTT9=
EXTT10=
EXTT11=
EXTT12=
EXTT13=
EXTT14=
EXTT15=
EXTT16=
EXTT17=
EXTT18=
EXTT19=
EXTT20=
PLAYORDER=
